<?xml version="1.0" encoding="utf-8"?>
<!-- Generator: Adobe Illustrator 23.0.1, SVG Export Plug-In . SVG Version: 6.00 Build 0)  -->
<svg version="1.1" id="Layer_1" xmlns="http://www.w3.org/2000/svg" xmlns:xlink="http://www.w3.org/1999/xlink" x="0px" y="0px"
	 viewBox="0 0 1366 768" style="enable-background:new 0 0 1366 768;" xml:space="preserve">
<style type="text/css">
	.st0{fill:#344359;}
	.st1{fill:#B4D6AE;}
</style>
<g>
	<path class="st0" d="M723.1,686.4c-96.1-96.7-191.8-192.4-218-330.2c-17.9-94.1-0.9-185.9,77-251.9C711.6-5.2,907.1,68.1,941,235.7
		c17.2,84.9,1.7,162.8-41.5,237C853.3,552.2,793.7,620.5,723.1,686.4z M685.7,112.8c-81.5,15.1-135.4,91.9-127,181
		c7.9,84.4,78.5,147.1,165.5,147.1c89.1,0,160-63.8,167.7-151.5c7.9-89.6-57.9-166-124.9-174.9C743.8,147.5,711.3,146.8,685.7,112.8
		z"/>
	<path class="st1" d="M685.7,112.8c25.6,34,58,34.7,81.4,1.7c67,8.9,132.8,85.3,124.9,174.9c-7.8,87.7-78.6,151.5-167.7,151.5
		c-87,0-157.5-62.7-165.5-147.1C550.3,204.7,604.3,127.8,685.7,112.8z M727.1,419.7c22.3-18.7,43.9-35.6,63.7-54.3
		c5.1-4.9,8-16.2,6.5-23.3c-12.6-59.6-27.3-118.7-39.5-178.4c-4.3-21.1-18.3-17.2-32-17.8c-13.9-0.6-25.7-0.3-29.5,18
		c-12.4,59.6-26.4,118.9-38.8,178.5c-1.5,7.2,0.8,18.4,5.8,23C683.1,384.1,704.6,400.9,727.1,419.7z"/>
	<path class="st0" d="M727.1,419.7c-22.5-18.8-44-35.6-63.8-54.3c-5-4.7-7.3-15.9-5.8-23c12.4-59.6,26.4-118.9,38.8-178.5
		c3.8-18.3,15.5-18.6,29.5-18c13.7,0.6,27.7-3.3,32,17.8c12.3,59.6,26.9,118.8,39.5,178.4c1.5,7.2-1.4,18.5-6.5,23.3
		C771,384.1,749.4,401,727.1,419.7z"/>
</g>
</svg>
